# xmcd CD database file
#
# Track frame offsets:
#	150
#	17812
#	41297
#	79590
#	109542
#	136540
#	206525
#	244270
#
# Disc length: 3441 seconds
#
# Revision: 0
# Processed by: cddbd v1.5.1PL0 Copyright (c) Steve Scherf et al.
# Submitted via: CDex 1.51
#
DISCID=570d6f08
DTITLE=Omnibus - Impulse Vol.2
DYEAR=1900
DGENRE=Jazz
TTITLE0=Dear John C/Elvin Jones
TTITLE1=Shiny stockings/Elvin Jones
TTITLE2=Syeeda's song fulute/Archie Sheep
TTITLE3=Fly me to the moon/Roy Haynes
TTITLE4=Raoul/Roy Haynes
TTITLE5=La Nevada/Gil Evans
TTITLE6=Moon taj/Gil Evans
TTITLE7=Side by side/J.J.Johnson&Kai Winding
EXTD=
EXTT0=
EXTT1=
EXTT2=
EXTT3=
EXTT4=
EXTT5=
EXTT6=
EXTT7=
PLAYORDER=
